<svg width="250" height="250" viewBox="0 0 250 250" fill="none" xmlns="http://www.w3.org/2000/svg">
<path d="M182.179 135.612C183.702 159.968 185.519 182.663 186.359 205.397C186.691 214.108 180.831 217.37 171.456 214.147C154.445 208.307 141.906 196.354 130.851 182.682C128.859 180.241 127.198 177.546 124.366 173.522C119.093 179.811 114.757 185.573 109.796 190.749C97.0227 204.108 84.0149 217.253 70.9875 230.378C69.4446 231.94 67.3938 233.132 65.4016 234.147C55.5774 239.069 49.6985 237.116 49.7961 226.354C49.9524 210.202 52.6868 193.991 55.4407 177.995C57.0032 168.913 60.8118 160.202 63.9172 150.319C52.4719 148.151 41.3391 145.807 30.1086 143.971C20.1086 142.35 17.0032 138.776 21.6321 129.87C26.1438 121.178 32.2961 113.034 39.0735 105.925C45.2844 99.4011 46.7883 94.0105 42.0422 86.0613C35.7727 75.6121 30.4993 64.5574 24.7766 53.7566C29.1516 47.409 34.7571 44.8308 41.5149 48.2293C53.2336 54.1277 64.6594 60.573 76.1243 66.9597C78.8782 68.5027 81.261 70.6902 83.8 72.5847C84.5227 72.0769 85.2454 71.5691 85.968 71.0808C82.7844 66.0027 78.8977 61.2176 76.593 55.7683C72.9211 47.0574 68.5657 38.073 67.6477 28.8933C66.4758 17.2136 76.6125 11.9402 86.2414 18.4441C98.7219 26.8621 110.675 36.0808 123.292 45.2801C134.015 31.2176 147.706 22.6629 164.191 18.698C174.249 16.2761 184.425 15.5144 191.73 24.6941C199.073 33.9519 199.191 44.5183 194.073 54.7722C189.835 63.2879 184.562 71.2957 179.152 80.573C191.339 81.6472 202.491 81.9988 213.409 83.7176C229.093 86.198 233.878 97.1941 223.136 108.874C215.128 117.585 203.976 123.483 193.937 130.182C190.011 132.8 185.265 134.225 182.179 135.612ZM187.179 124.284C196.945 117.78 207.511 112.077 216.007 104.186C223.292 97.3894 220.538 92.1746 210.421 91.491C198.195 90.6707 185.929 90.5535 173.722 89.7332C170.558 89.5183 166.613 88.5808 164.718 86.4715C163.702 85.3191 165.773 80.7097 167.296 78.1511C169.738 74.0105 173.409 70.5535 175.597 66.3152C180.128 57.5847 185.05 48.8152 187.823 39.4793C189.659 33.3074 187.609 24.9676 178.722 25.9832C158.976 28.2293 140.851 34.909 130.323 53.4051C126.3 60.4754 124.034 58.991 118.995 54.5183C108.214 44.909 96.7493 36.0222 85.3235 27.1551C83.5071 25.7488 79.3469 24.7722 78.1164 25.7879C76.3977 27.2136 75.2258 31.1199 75.9289 33.2879C77.9211 39.323 80.6946 45.1629 83.7024 50.7879C89.8743 62.3699 96.5735 73.698 102.628 85.3582C103.702 87.4285 102.745 90.5535 102.726 93.1902C99.7375 92.6433 96.1243 92.9949 93.8977 91.4129C86.3 86.0222 79.386 79.6746 71.8274 74.2058C61.3391 66.6472 51.3586 57.8386 37.9211 55.9441C37.1985 56.6668 36.4758 57.409 35.7532 58.1316C42.9211 69.7527 50.3235 81.2371 57.0227 93.1316C58.0579 94.948 56.5149 99.3426 54.7961 101.374C49.0344 108.171 42.4329 114.264 36.6125 121.022C33.2922 124.87 30.8704 129.499 27.6672 134.343C42.2961 137.038 54.8938 139.577 67.55 141.628C74.9524 142.839 74.7571 146.218 72.9211 152.487C67.0032 172.78 61.7297 193.249 56.7688 213.796C55.7727 217.936 57.2375 222.663 57.6868 228.542C88.761 210.925 104.191 180.925 128.644 157.761C136.613 183.288 152.999 198.757 175.734 207.389C176.984 206.686 178.234 206.003 179.484 205.3C177.472 182.096 175.48 158.874 173.468 135.671" fill="black"/>
<path d="M37.918 55.9441C51.3555 57.8386 61.3359 66.6277 71.8242 74.2253C79.3828 79.6941 86.2969 86.0417 93.8945 91.4324C96.1406 93.0144 99.7344 92.6628 102.723 93.2097C102.742 90.573 103.699 87.448 102.625 85.3777C96.5703 73.7371 89.8906 62.4089 83.6992 50.8074C80.6914 45.1824 77.918 39.3425 75.9258 33.3074C75.2227 31.1589 76.3945 27.2527 78.1133 25.8074C79.3438 24.7722 83.5039 25.7488 85.3203 27.1745C96.7461 36.0417 108.211 44.9285 118.992 54.5378C124.012 59.0105 126.277 60.4949 130.32 53.4245C140.867 34.9284 158.973 28.2488 178.719 26.0027C187.605 24.987 189.656 33.3269 187.82 39.4988C185.047 48.8347 180.125 57.6042 175.594 66.3347C173.406 70.573 169.734 74.03 167.293 78.1706C165.789 80.7292 163.699 85.3386 164.715 86.491C166.609 88.6003 170.555 89.5378 173.719 89.7527C185.945 90.573 198.211 90.6706 210.418 91.5105C220.535 92.1941 223.289 97.4089 216.004 104.206C207.508 112.116 196.961 117.819 187.176 124.303C181.687 127.956 175.984 131.257 170.398 134.714C171.414 135.046 172.449 135.358 173.465 135.69C175.477 158.893 177.469 182.116 179.48 205.319C178.23 206.022 176.98 206.706 175.73 207.409C152.996 198.776 136.609 183.307 128.641 157.78C104.187 180.925 88.7773 210.944 57.6836 228.561C57.2344 222.682 55.7695 217.936 56.7656 213.815C61.7266 193.268 67 172.8 72.918 152.507C74.7539 146.217 74.9297 142.839 67.5469 141.647C54.8906 139.577 42.293 137.057 27.6641 134.362C30.8477 129.538 33.2695 124.909 36.6094 121.042C42.4297 114.284 49.0508 108.21 54.793 101.393C56.5117 99.362 58.0352 94.9675 57.0195 93.1511C50.3398 81.2566 42.9375 69.7722 35.75 58.1511C36.4727 57.4089 37.1953 56.6863 37.918 55.9441ZM143.66 157.155C148.348 154.538 153.074 151.823 157.898 149.264C165.301 145.339 167.977 137.702 166.141 131.276C164.207 124.518 158.172 118.854 153.465 113.093C152.762 112.233 148.582 112.682 147.547 113.854C139.207 123.444 131.082 133.268 123.289 143.307C122.293 144.596 122.781 149.069 123.758 149.538C129.715 152.311 136.023 154.342 143.66 157.155ZM116.316 130.768C125.516 130.69 133.777 122.292 132.723 115.202C132.293 112.214 128.777 107.995 126.004 107.409C119.695 106.081 110.418 116.843 111.316 124.421C111.648 127.116 115.223 129.46 116.316 130.768ZM92.6445 119.928C89.3047 113.776 87.9961 107.878 84.4609 105.885C80.7695 103.796 72.0977 114.46 73.6992 119.948C74.4805 122.624 79.2266 125.573 82.3125 125.729C85.2422 125.866 88.3281 122.526 92.6445 119.928ZM141.316 91.862C149.832 91.6472 157.566 84.1863 156.434 78.1706C155.965 75.6706 152.762 73.6785 150.809 71.4519C146.297 76.7644 141.688 81.9988 137.547 87.5847C137.273 87.9753 140.555 91.0027 141.316 91.862Z" fill="#F9F8F3"/>
<path d="M143.565 156.354C143.311 156.393 143.057 156.413 142.784 156.413C141.885 156.413 141.026 156.12 140.167 155.846C136.104 154.518 132.081 153.034 128.116 151.432C124.971 150.163 121.378 148.229 122.881 144.186C123.37 142.878 124.268 141.784 125.167 140.71C132.042 132.389 138.917 124.069 145.811 115.749C147.159 114.128 148.838 112.331 150.948 112.468C152.569 112.565 153.878 113.757 154.991 114.928C157.237 117.253 159.307 119.733 161.241 122.35C164.776 127.155 167.842 133.093 166.417 138.874C165.674 141.901 163.741 144.538 161.417 146.628C159.092 148.718 156.397 150.339 153.721 151.94C150.772 153.698 147.745 155.495 144.385 156.257C144.112 156.315 143.858 156.374 143.585 156.413L143.565 156.354ZM137.745 141.667C141.983 143.678 145.069 145.143 149.171 147.096V130.221C148.467 130.104 147.764 130.007 147.061 129.889C144.229 133.464 141.397 137.038 137.745 141.667Z" fill="black"/>
<path d="M116.32 130.768C115.227 129.459 111.652 127.116 111.32 124.401C110.422 116.823 119.699 106.061 126.008 107.389C128.781 107.975 132.297 112.213 132.727 115.182C133.781 122.291 125.52 130.69 116.32 130.768Z" fill="black"/>
<path d="M92.6458 119.929C88.3294 122.526 85.2434 125.866 82.3333 125.729C79.2473 125.573 74.5012 122.624 73.72 119.948C72.1184 114.46 80.7708 103.776 84.4817 105.886C87.9973 107.878 89.3059 113.776 92.6458 119.929Z" fill="black"/>
<path d="M141.319 91.8618C140.558 91.022 137.276 87.9946 137.569 87.604C141.71 82.0181 146.319 76.7837 150.831 71.4712C152.784 73.6978 155.987 75.6899 156.456 78.1899C157.569 84.186 149.835 91.647 141.319 91.8618Z" fill="black"/>
</svg>
