<?xml version="1.0" standalone="no"?>
<!DOCTYPE svg PUBLIC "-//W3C//DTD SVG 20010904//EN"
 "http://www.w3.org/TR/2001/REC-SVG-20010904/DTD/svg10.dtd">
<svg version="1.0" xmlns="http://www.w3.org/2000/svg"
 width="250.000000pt" height="250.000000pt" viewBox="0 0 250.000000 250.000000"
 preserveAspectRatio="xMidYMid meet">
<metadata>
Created by potrace 1.14, written by Peter Selinger 2001-2017
</metadata>
<g transform="translate(0.000000,250.000000) scale(0.100000,-0.100000)"
fill="#000000" stroke="none">
<path d="M660 2484 c-53 -38 -66 -88 -46 -183 19 -91 95 -271 151 -358 48 -74
46 -104 -2 -65 -37 28 -310 182 -415 232 -45 22 -93 40 -105 40 -31 0 -72 -22
-102 -53 l-23 -26 97 -183 c54 -101 105 -196 114 -213 9 -16 15 -49 15 -71 -1
-46 -18 -74 -102 -168 -30 -33 -76 -94 -103 -135 -84 -128 -97 -193 -46 -225
12 -8 121 -33 242 -56 120 -22 221 -43 223 -45 2 -2 -15 -57 -37 -123 -70
-203 -139 -690 -111 -790 18 -68 67 -79 158 -37 43 20 100 72 287 262 128 131
263 274 300 318 37 44 73 86 80 93 10 11 21 1 61 -55 68 -95 215 -240 303
-297 86 -57 201 -105 253 -106 25 0 46 8 65 24 l28 24 -2 124 c-3 118 -26 518
-39 661 l-6 67 55 25 c58 25 217 124 302 186 231 171 232 335 1 378 -32 6
-131 16 -220 22 -88 7 -163 13 -164 15 -2 1 26 52 62 112 95 161 124 224 134
287 20 127 -43 258 -145 300 -75 32 -244 10 -375 -48 -85 -38 -175 -102 -250
-179 l-68 -69 -147 109 c-265 195 -296 214 -350 219 -35 3 -55 0 -73 -13z
m191 -151 c104 -79 211 -166 303 -245 49 -42 88 -68 102 -68 18 0 34 16 69 68
85 131 196 211 359 261 76 24 190 37 230 27 31 -8 56 -52 56 -100 0 -72 -108
-304 -199 -429 -59 -80 -79 -131 -61 -152 21 -26 79 -33 316 -44 239 -11 257
-14 287 -39 53 -46 -23 -130 -248 -272 -55 -35 -136 -93 -180 -129 -44 -36
-81 -65 -82 -65 -1 -1 14 -178 33 -395 41 -475 47 -452 -101 -378 -193 96
-331 244 -409 438 l-32 79 -80 -82 c-44 -46 -136 -150 -203 -233 -155 -188
-321 -353 -431 -428 l-85 -58 -7 38 c-4 21 -7 57 -7 81 -1 46 68 334 150 625
50 178 53 209 21 226 -9 5 -120 28 -247 51 -126 23 -234 46 -238 50 -15 14 78
141 190 260 60 63 115 130 122 148 18 42 15 47 -125 274 -61 100 -103 177 -99
186 4 11 16 13 45 9 90 -12 222 -94 478 -299 67 -54 133 -100 145 -102 73 -15
75 -15 82 20 7 37 -4 61 -118 264 -108 192 -187 361 -187 398 0 91 48 95 151
15z"/>
<path d="M1472 1783 c-40 -48 -72 -93 -72 -99 0 -6 9 -19 20 -29 52 -47 190
43 190 126 0 15 -13 37 -33 57 l-33 32 -72 -87z"/>
<path d="M724 1445 c-39 -42 -63 -109 -48 -133 39 -60 102 -69 167 -22 l46 33
-31 61 c-54 108 -78 119 -134 61z"/>
<path d="M1178 1430 c-42 -34 -78 -103 -78 -146 0 -20 10 -40 29 -58 25 -24
35 -27 64 -22 118 22 186 152 118 225 -39 42 -83 42 -133 1z"/>
<path d="M1523 1396 c-12 -6 -82 -85 -157 -176 -141 -171 -156 -200 -118 -232
25 -22 176 -78 210 -78 40 0 145 56 203 108 97 87 86 179 -39 328 -43 52 -71
66 -99 50z m5 -284 c3 -105 4 -105 -76 -64 l-53 28 52 67 c29 37 57 66 63 64
7 -2 12 -40 14 -95z"/>
</g>
</svg>
